<svg xmlns="http://www.w3.org/2000/svg" width="119.66" height="38.553" viewBox="0 0 119.66 38.553"><defs><style>.a{fill:#ff00b0;}.b{fill:#7045d4;}.c{fill:#ffdb00;}.d{fill:#541aa6;}</style></defs><path class="a" d="M405.731,90.237a4.362,4.362,0,0,0-1.777,1.523l17.132,7.989V83.529a4.366,4.366,0,0,0-1.845.409Z" transform="translate(-319.303 -83.529)"/><path class="b" d="M401.272,115.608v17.771a4.367,4.367,0,0,0,2.522,3.959l12.327,5.748a4.359,4.359,0,0,0,3.028.243V121.162l-17.132-7.989a4.361,4.361,0,0,0-.745,2.435" transform="translate(-317.366 -104.941)"/><path class="c" d="M481,90.237l-13.509-6.3a4.367,4.367,0,0,0-1.846-.409V99.749l16.48,13.828a4.353,4.353,0,0,0,1.4-3.2V94.195A4.368,4.368,0,0,0,481,90.237" transform="translate(-363.865 -83.528)"/><path class="d" d="M479.158,156.941a4.348,4.348,0,0,0,2.971-1.172l-16.48-13.829v22.168a4.358,4.358,0,0,0,2.155-1.384l3.6-4.262a4.285,4.285,0,0,1,3.275-1.521h4.482Z" transform="translate(-363.866 -125.719)"/><g transform="translate(0 4.911)"><path d="M336.707,103.366a.624.624,0,0,0,.086.145.662.662,0,0,0,.036.06.573.573,0,0,0,.053.041.55.55,0,0,0,.128.1c.005,0,.011,0,.016,0a.522.522,0,0,0,.209.047h1.111a.605.605,0,0,0,.572-.647h0v-1.253a.6.6,0,0,0-.573-.646h-1.11a.606.606,0,0,0-.573.647v1.252h0a.73.73,0,0,0,.041.235C336.706,103.353,336.7,103.36,336.707,103.366Z" transform="translate(-270.698 -101.212)"/><path d="M129.495,108.8h-4.661l4.483-6.03a.637.637,0,0,0-.465-1.01h-1.074a1.147,1.147,0,0,0-.93.525l-5.478,6.761.017.026a.86.86,0,0,0-.182.533v.8a.916.916,0,0,0,.856.966h.837l.012.018.013-.018h6.418c1.783,0,3.208,1.819,3.208,3.794v3.153c0,1.975-1.425,3.754-3.208,3.754H110.76a2.022,2.022,0,0,0-1.91,1.852l-.049.7h0v.507c0,2.1-.806,3.725-2.7,3.725h-5.835a1.2,1.2,0,0,0-1.146,1.254v.647a.605.605,0,0,0,.573.646H106.1c3.115,0,4.958-2.755,4.958-6.272v-.507h18.59c2.852,0,5.165-2.611,5.165-5.832v-3.985C134.811,111.5,132.419,108.8,129.495,108.8Z" transform="translate(-99.117 -101.61)"/><path d="M268.1,127.115h-5.512c-3.111,0-5.656,2.874-5.656,6.387v1.147a1.226,1.226,0,0,0,1.146,1.293h.715a.423.423,0,0,0,.4-.446v-2.035a3.6,3.6,0,0,1,3.4-3.8H268.1a3.6,3.6,0,0,1,3.365,3.8v3.046a4.306,4.306,0,0,1-.106.934,3.493,3.493,0,0,1-3.26,2.905H252.558v-6.941c0-3.517-2.506-6.346-5.621-6.346h-4.546c-3.115,0-5.621,2.83-5.621,6.346v3.1c0,3.517,2.506,6.387,5.621,6.387H250.3v.392a3.64,3.64,0,0,1-3.4,3.84h-5.836a1.2,1.2,0,0,0-1.145,1.253v.646a.605.605,0,0,0,.573.647H246.9a5.09,5.09,0,0,0,2.506-.671,6.514,6.514,0,0,0,3.15-5.715v-.392H268.1c3.1,0,5.621-2.842,5.621-6.347v-3.087C273.717,129.956,271.2,127.115,268.1,127.115ZM250.3,136.507v3.84h-7.912a3.611,3.611,0,0,1-3.365-3.84v-3.1a3.6,3.6,0,0,1,3.365-3.8h4.546a3.6,3.6,0,0,1,3.365,3.8Z" transform="translate(-198.545 -119.882)"/><path d="M167.1,108.842h.8a.922.922,0,0,0,.776-.455l4.779-5.611a.639.639,0,0,0-.467-1.015h-.636a1.152,1.152,0,0,0-.934.528l-4.741,5.633A.591.591,0,0,0,167.1,108.842Z" transform="translate(-147.848 -101.609)"/></g></svg>